<svg width="432" height="437" viewBox="0 0 432 437" fill="none" xmlns="http://www.w3.org/2000/svg">
<path fill-rule="evenodd" clip-rule="evenodd" d="M158.456 1.01085C205.519 0.351448 260.767 6.75229 275.83 51.1791C291.216 96.5543 254.807 139.956 214.327 165.79C181.28 186.881 140.493 180.302 108.103 158.223C71.9175 133.556 37.492 95.947 50.8208 54.3317C64.2876 12.2857 114.161 1.63146 158.456 1.01085Z" fill="#707AE2"/>
<path fill-rule="evenodd" clip-rule="evenodd" d="M197.269 64.3904C277.744 65.1598 350.892 112.773 376.859 189.433C404.018 269.616 383.361 361.816 314.53 410.581C248.351 457.466 161.53 436.227 96.0267 388.391C30.3819 340.452 -17.471 263.76 6.85967 185.895C31.7845 106.129 114.185 63.596 197.269 64.3904Z" fill="#FDC095"/>
<path d="M190.414 280.318C193.412 263.316 203.296 249.749 220.068 239.618C222.965 237.791 227.499 235.318 233.668 232.199C248.104 224.693 257.851 217.881 262.911 211.761C267.97 205.641 271.22 198.501 272.658 190.341C276.096 170.845 267.174 155.715 245.892 144.95C237.515 140.669 227.877 137.567 216.977 135.645C195.404 131.841 178.062 133.925 164.948 141.898C157.551 146.67 153.079 152.777 151.533 160.217C149.735 170.419 153.444 177.266 162.662 180.762C164.438 181.309 166.121 181.722 167.711 182.002C177.249 183.684 183.819 180.285 187.421 171.805C188.195 170.071 189.149 167.318 190.283 163.544C192.989 153.503 196.627 147.483 201.193 145.484C204.773 143.778 209.174 143.385 214.396 144.305C229.825 148.429 236.321 159.391 233.884 177.192C230.767 194.874 223.447 209.828 211.925 222.054C201.552 233.081 195.465 239.72 193.662 241.974C186.788 251.746 182.072 263.888 179.514 278.395L190.414 280.318ZM200.632 325.944C202.19 317.103 199.355 309.943 192.128 304.46C189.041 302.046 185.795 300.538 182.388 299.938C173.305 298.336 166.113 301.276 160.814 308.756C158.666 311.649 157.291 314.796 156.692 318.196C155.052 327.491 157.981 334.785 165.476 340.08C168.415 342.001 171.474 343.242 174.654 343.802C183.51 345.364 190.661 342.651 196.108 335.664C198.484 332.811 199.992 329.571 200.632 325.944Z" fill="#FCF3EA"/>
<path fill-rule="evenodd" clip-rule="evenodd" d="M357.758 257.611C387.092 256.701 417.02 269.892 426.66 297.771C436.847 327.234 425.66 361.352 399.323 377.825C376.946 391.821 351.53 373.981 330.636 357.832C312.14 343.535 294.686 324.316 300.812 301.678C307.765 275.982 331.292 258.434 357.758 257.611Z" fill="#77B497" stroke="#77B497" stroke-width="1.94" stroke-linecap="round"/>
<path fill-rule="evenodd" clip-rule="evenodd" d="M62.4672 352.808C81.1718 352.23 100.256 360.603 106.402 378.3C112.898 397 105.764 418.657 88.9708 429.113C74.7022 437.996 58.496 426.674 45.1734 416.422C33.3799 407.347 22.2502 395.149 26.1565 380.779C30.5905 364.468 45.5913 353.33 62.4672 352.808Z" fill="#DC6B4E"/>
</svg>
