
<svg viewBox="0 0 350 350" fill="none" xmlns="http://www.w3.org/2000/svg">
    <path opacity="1" d="M166.65 0.06 C240.28 -1.25 321.99 21.86 344.36 106.84 366.47 190.86 311 269.41 250.13 317.32 199.93 356.79 137.61 349.1 88.22 308.1 33.04 262.29 -15.19 190.57 4.51 112.96 24.97 32.48 97.13 1.32 166.65 0.06 " fill="#717BE3" data-original="M162.597 0.0156016C230.127 0.726511 291.509 44.7152 313.298 115.54C336.089 189.62 312.259 242.447 254.5 287.5C198.967 330.816 104.802 343.276 49.835 299.081C-5.25018 254.791 -9.03443 169.968 11.3824 98.0301C32.2978 24.3357 92.8778 -0.718352 162.597 0.0156016Z" data-svg-origin="176.50010681152344 172.50007641501725" transform="matrix(1,0,0,1,0,0)" style="transform-origin: 0px 0px;"></path>
    <path opacity="0" d="M166.176 0.0838688C236.91 -1.18923 319.945 11.1689 342.585 96.9437C365.709 184.55 310.988 268.345 250.149 318.223C200.48 358.943 139.178 346.241 90.4972 303.612C36.1111 255.988 -15.6294 183.377 4.4034 103.03C24.6436 21.8521 99.6022 1.28208 166.176 0.0838688Z" fill="#717BE3"></path>
    <path opacity="0" d="M167.937 0.0300754C249.436 -1.4363 327.557 50.8248 349.17 133.656C368.563 207.98 311.052 272.301 250.092 314.892C198.46 350.967 133.37 356.876 82.0742 320.271C24.7596 279.372 -14.0232 210.052 4.79887 139.852C25.871 61.2599 90.4579 1.42414 167.937 0.0300754Z" fill="#717BE3"></path>
    <path opacity="0" d="M143.642 0.117692C215.675 -2.3134 289.169 32.9019 312.84 107.323C337.855 185.972 310.385 277.048 245.71 321.023C190.76 358.386 116.898 319.209 65.5909 276.097C20.1725 237.932 -11.239 178.183 3.80468 117.753C20.881 49.1581 78.6506 2.31113 143.642 0.117692Z" fill="#717BE3"></path>
</svg>