<svg width="64" height="64" viewBox="0 0 64 64" fill="none" xmlns="http://www.w3.org/2000/svg">
<path d="M51.3273 15.5008C52.1083 14.7198 52.1083 13.4535 51.3273 12.6724C50.5463 11.8914 49.2799 11.8914 48.4989 12.6724L51.3273 15.5008ZM12.6721 48.4992C11.8911 49.2802 11.8911 50.5465 12.6721 51.3276C13.4532 52.1086 14.7195 52.1086 15.5006 51.3276L12.6721 48.4992ZM48.4989 12.6724L12.6721 48.4992L15.5006 51.3276L51.3273 15.5008L48.4989 12.6724Z" fill="#D56B50"/>
<path d="M48.4989 51.3276C49.2799 52.1086 50.5463 52.1086 51.3273 51.3276C52.1083 50.5465 52.1083 49.2802 51.3273 48.4992L48.4989 51.3276ZM15.5006 12.6724C14.7195 11.8914 13.4532 11.8914 12.6721 12.6724C11.8911 13.4535 11.8911 14.7198 12.6721 15.5008L15.5006 12.6724ZM51.3273 48.4992L15.5006 12.6724L12.6721 15.5008L48.4989 51.3276L51.3273 48.4992Z" fill="#D56B50"/>
</svg>
