<svg
      viewBox="0 0 350 350"
      fill="none"
      xmlns="http://www.w3.org/2000/svg"
      class="main__bubble-1"
    >
      <path
        opacity="0.05"
        d="M159.9 0.05 C238.28 -1.72 314.87 44.9 337.16 124.95 358.41 200.7 310.83 273.86 248.64 316.91 195.91 353.41 127.92 344.43 76.62 305.67 23.24 265.68 -13.1 199.52 4.47 132.55 24.22 57.26 86.55 1.71 159.9 0.05 "
        fill="#707AE2"
        data-original="M162.597 0.0156016C230.127 0.726511 291.509 44.7152 313.298 115.54C336.089 189.62 312.259 242.447 254.5 287.5C198.967 330.816 104.802 343.276 49.835 299.081C-5.25018 254.791 -9.03443 169.968 11.3824 98.0301C32.2978 24.3357 92.8778 -0.718352 162.597 0.0156016Z"
        data-svg-origin="176.50010681152344 172.50007641501725"
        transform="matrix(1,0,0,1,0,0)"
        style="transform-origin: 0px 0px"
      ></path>
      <path
        opacity="0"
        d="M166.176 0.0838688C236.91 -1.18923 319.945 11.1689 342.585 96.9437C365.709 184.55 310.988 268.345 250.149 318.223C200.48 358.943 139.178 346.241 90.4972 303.612C36.1111 255.988 -15.6294 183.377 4.4034 103.03C24.6436 21.8521 99.6022 1.28208 166.176 0.0838688Z"
        fill="#707AE2"
      ></path>
      <path
        opacity="0"
        d="M167.937 0.0300754C249.436 -1.4363 327.557 50.8248 349.17 133.656C368.563 207.98 311.052 272.301 250.092 314.892C198.46 350.967 133.37 356.876 82.0742 320.271C24.7596 279.372 -14.0232 210.052 4.79887 139.852C25.871 61.2599 90.4579 1.42414 167.937 0.0300754Z"
        fill="#707AE2"
      ></path>
      <path
        opacity="0"
        d="M143.642 0.117692C215.675 -2.3134 289.169 32.9019 312.84 107.323C337.855 185.972 310.385 277.048 245.71 321.023C190.76 358.386 116.898 319.209 65.5909 276.097C20.1725 237.932 -11.239 178.183 3.80468 117.753C20.881 49.1581 78.6506 2.31113 143.642 0.117692Z"
        fill="#707AE2"
      ></path>
    </svg>