<svg width="429" height="494" viewBox="0 0 429 494" fill="none" xmlns="http://www.w3.org/2000/svg">
<path d="M96.0211 349.884L170.342 379.941L129.37 479.265L106.31 449.278C103.121 445.132 97.9261 443.031 92.7189 443.782L55.0493 449.209L96.0211 349.884Z" fill="#77B497" stroke="white" stroke-width="14.52" stroke-linecap="round"/>
<path d="M336.215 350.421L261.894 380.475L302.654 479.291L325.766 449.361C328.95 445.238 334.122 443.147 339.311 443.884L376.975 449.234L336.215 350.421Z" fill="#77B497" stroke="white" stroke-width="14.52" stroke-linecap="round"/>
<path d="M345.952 212.248C345.952 284.22 287.006 342.688 214.141 342.688C141.276 342.688 82.3299 284.22 82.3299 212.248C82.3299 140.276 141.276 81.8079 214.141 81.8079C287.006 81.8079 345.952 140.276 345.952 212.248Z" fill="#77B497" stroke="white" stroke-width="14.52" stroke-linecap="round"/>
<path d="M169.911 231.03L198.357 259.196L264.732 162.18" stroke="white" stroke-width="14.52" stroke-linecap="round" stroke-linejoin="round"/>
<path fill-rule="evenodd" clip-rule="evenodd" d="M220.544 16.5914C216.732 13.8296 211.577 13.8296 207.765 16.5914L194.644 26.0979C191.661 28.2586 187.789 28.7657 184.351 27.4457L169.174 21.6187C164.775 19.9296 159.789 21.2617 156.818 24.9195L146.667 37.4173C144.34 40.2824 140.721 41.7738 137.051 41.3794L120.895 39.6433C116.196 39.1382 111.708 41.7218 109.784 46.0388L103.282 60.633C101.774 64.0176 98.6482 66.4032 94.9855 66.9648L78.9932 69.418C74.3032 70.1371 70.6184 73.8106 69.8852 78.4988L67.4327 94.1738C66.8574 97.851 64.4438 100.98 61.033 102.47L46.3085 108.902C41.9428 110.809 39.3235 115.332 39.8426 120.068L41.5638 135.77C41.971 139.484 40.4453 143.148 37.5221 145.476L25.0491 155.407C21.3113 158.383 19.9501 163.449 21.6924 167.898L27.4493 182.597C28.815 186.085 28.2929 190.029 26.067 193.041L16.6521 205.78C13.8093 209.627 13.8093 214.879 16.6521 218.725L26.067 231.465C28.2929 234.477 28.8149 238.421 27.4493 241.908L21.6924 256.608C19.9501 261.057 21.3113 266.122 25.0491 269.098L37.5221 279.03C40.4453 281.357 41.971 285.021 41.5638 288.736L39.8426 304.438C39.3235 309.173 41.9428 313.697 46.3085 315.603L61.033 322.035C64.4438 323.526 66.8574 326.654 67.4327 330.332L69.8852 346.007C70.6184 350.695 74.3032 354.368 78.9932 355.088L94.9855 357.541C98.6482 358.102 101.774 360.488 103.282 363.873L109.784 378.467C111.708 382.784 116.196 385.368 120.895 384.864L137.051 383.125C140.721 382.733 144.34 384.225 146.667 387.089L156.818 399.587C159.789 403.242 164.775 404.574 169.174 402.886L184.351 397.06C187.789 395.739 191.661 396.247 194.644 398.407L207.765 407.914C211.577 410.676 216.732 410.676 220.544 407.914L233.665 398.407C236.647 396.247 240.519 395.739 243.957 397.06L259.134 402.886C263.533 404.574 268.519 403.242 271.49 399.587L281.641 387.089C283.968 384.225 287.588 382.733 291.258 383.125L307.413 384.864C312.112 385.368 316.6 382.784 318.524 378.467L325.027 363.873C326.535 360.488 329.66 358.102 333.323 357.541L349.315 355.088C354.005 354.368 357.69 350.695 358.423 346.007L360.875 330.332C361.451 326.654 363.865 323.526 367.275 322.035L382.002 315.603C386.365 313.697 388.986 309.173 388.467 304.438L386.746 288.736C386.336 285.021 387.864 281.357 390.786 279.03L403.259 269.098C406.998 266.122 408.359 261.057 406.617 256.608L400.859 241.908C399.495 238.421 400.014 234.477 402.243 231.465L411.655 218.725C414.497 214.879 414.497 209.627 411.655 205.78L402.243 193.041C400.014 190.029 399.495 186.085 400.859 182.597L406.617 167.898C408.359 163.449 406.998 158.383 403.259 155.407L390.786 145.476C387.864 143.148 386.336 139.484 386.746 135.77L388.467 120.068C388.986 115.332 386.365 110.809 382.002 108.902L367.275 102.47C363.865 100.98 361.451 97.851 360.875 94.1738L358.423 78.4988C357.69 73.8106 354.005 70.1371 349.315 69.418L333.323 66.9648C329.66 66.4032 326.535 64.0176 325.027 60.633L318.524 46.0388C316.6 41.7218 312.112 39.1382 307.413 39.6433L291.258 41.3794C287.588 41.7738 283.968 40.2824 281.641 37.4173L271.49 24.9195C268.519 21.2617 263.533 19.9296 259.134 21.6187L243.957 27.4457C240.519 28.7657 236.647 28.2586 233.665 26.0979L220.544 16.5914ZM212.293 335.619C281.214 335.619 337.085 280.015 337.085 211.424C337.085 142.833 281.214 87.2293 212.293 87.2293C143.373 87.2293 87.5016 142.833 87.5016 211.424C87.5016 280.015 143.373 335.619 212.293 335.619Z" fill="#77B497"/>
<path d="M207.765 16.5914L199.246 4.83317L207.765 16.5914ZM220.544 16.5914L212.024 28.3495L220.544 16.5914ZM194.644 26.0979L203.163 37.856L194.644 26.0979ZM184.351 27.4456L179.147 41.0009L184.351 27.4456ZM169.174 21.6186L163.97 35.1739L169.174 21.6186ZM156.818 24.9195L168.089 34.0736V34.0736L156.818 24.9195ZM146.667 37.4173L157.938 46.5714L146.667 37.4173ZM137.051 41.3794L135.499 55.8163L137.051 41.3794ZM120.895 39.6432L119.344 54.0801L120.895 39.6432ZM109.784 46.0388L123.048 51.9482L109.784 46.0388ZM103.282 60.633L90.0189 54.7233L103.282 60.633ZM94.9855 66.9648L97.1867 81.3171L94.9855 66.9648ZM78.9932 69.4179L76.792 55.0656L78.9932 69.4179ZM69.8852 78.4988L55.5398 76.2543L69.8852 78.4988ZM67.4327 94.1738L81.7785 96.4183L67.4327 94.1738ZM61.033 102.47L66.845 115.776L61.033 102.47ZM46.3085 108.902L40.4963 95.5957L46.3085 108.902ZM39.8425 120.068L54.2762 118.486L39.8425 120.068ZM41.5638 135.77L55.9975 134.188L41.5638 135.77ZM37.5221 145.476L28.4775 134.117L37.5221 145.476ZM25.0491 155.407L34.0937 166.766H34.0937L25.0491 155.407ZM21.6924 167.898L35.2126 162.603L21.6924 167.898ZM27.4493 182.597L13.9291 187.892L27.4493 182.597ZM26.067 193.041L37.7442 201.67L26.067 193.041ZM16.6521 205.78L4.97491 197.15L16.6521 205.78ZM16.6521 218.725L4.97491 227.355L16.6521 218.725ZM26.067 231.465L14.3898 240.094H14.3898L26.067 231.465ZM27.4493 241.908L13.9291 236.613H13.9291L27.4493 241.908ZM21.6924 256.608L35.2126 261.903L21.6924 256.608ZM25.0491 269.098L34.0937 257.739H34.0937L25.0491 269.098ZM37.5221 279.03L28.4775 290.389L37.5221 279.03ZM41.5638 288.736L27.1302 287.153L41.5638 288.736ZM39.8425 304.438L54.2762 306.02V306.02L39.8425 304.438ZM46.3085 315.603L52.1207 302.298L46.3085 315.603ZM61.033 322.035L55.2207 335.342L61.033 322.035ZM67.4327 330.332L81.7785 328.087L67.4327 330.332ZM69.8852 346.007L84.2306 343.762L69.8852 346.007ZM78.9932 355.088L76.792 369.44L78.9932 355.088ZM94.9855 357.54L97.1867 343.188L94.9855 357.54ZM103.282 363.873L90.0189 369.782L103.282 363.873ZM109.784 378.467L123.048 372.557L109.784 378.467ZM120.895 384.863L119.344 370.425L120.895 384.863ZM137.051 383.125L138.602 397.561L137.051 383.125ZM146.667 387.089L157.938 377.934L146.667 387.089ZM156.818 399.587L145.547 408.742L156.818 399.587ZM169.174 402.886L174.379 416.441H174.379L169.174 402.886ZM184.351 397.06L179.147 383.506L184.351 397.06ZM194.644 398.407L203.163 386.649L194.644 398.407ZM207.765 407.914L216.284 396.156H216.284L207.765 407.914ZM220.544 407.914L229.062 419.672L220.544 407.914ZM233.665 398.407L225.145 386.649L233.665 398.407ZM243.957 397.06L249.161 383.506L243.957 397.06ZM259.134 402.886L253.929 416.441L259.134 402.886ZM271.49 399.587L260.219 390.432L271.49 399.587ZM281.641 387.089L292.912 396.244L281.641 387.089ZM291.258 383.125L289.706 397.561L291.258 383.125ZM307.413 384.863L308.965 370.425L307.413 384.863ZM318.524 378.467L305.261 372.557L318.524 378.467ZM325.027 363.873L338.29 369.782L325.027 363.873ZM333.323 357.54L331.121 343.188L333.323 357.54ZM349.315 355.088L351.516 369.44L349.315 355.088ZM358.423 346.007L372.769 348.251L358.423 346.007ZM360.875 330.332L346.53 328.087L360.875 330.332ZM367.275 322.035L373.088 335.342L367.275 322.035ZM382.002 315.603L376.187 302.298L382.002 315.603ZM388.467 304.438L374.032 306.02V306.02L388.467 304.438ZM386.746 288.736L372.311 290.318V290.318L386.746 288.736ZM390.786 279.03L381.74 267.671L390.786 279.03ZM403.259 269.098L412.305 280.457L403.259 269.098ZM406.617 256.608L393.095 261.903L406.617 256.608ZM400.859 241.908L414.378 236.613L400.859 241.908ZM402.243 231.465L413.92 240.094L402.243 231.465ZM411.655 218.725L399.977 210.095L411.655 218.725ZM411.655 205.78L423.333 197.15L411.655 205.78ZM402.243 193.041L390.565 201.67V201.671L402.243 193.041ZM400.859 182.597L414.378 187.892L400.859 182.597ZM406.617 167.898L420.135 173.192L406.617 167.898ZM403.259 155.407L412.305 144.048L403.259 155.407ZM390.786 145.476L381.74 156.835L390.786 145.476ZM386.746 135.77L372.311 134.188L386.746 135.77ZM388.467 120.068L374.032 118.486L388.467 120.068ZM382.002 108.902L387.813 95.5957L382.002 108.902ZM367.275 102.47L361.463 115.776L367.275 102.47ZM360.875 94.1738L346.53 96.4183L360.875 94.1738ZM358.423 78.4988L372.769 76.2543L358.423 78.4988ZM349.315 69.4179L351.517 55.0656L349.315 69.4179ZM333.323 66.9648L331.121 81.3171L333.323 66.9648ZM325.027 60.633L338.29 54.7233L325.027 60.633ZM318.524 46.0387L331.787 40.1293V40.1293L318.524 46.0387ZM307.413 39.6432L308.965 54.0801L307.413 39.6432ZM291.258 41.3794L289.706 26.9425V26.9426L291.258 41.3794ZM281.641 37.4173L292.912 28.2633V28.2632L281.641 37.4173ZM271.49 24.9195L260.219 34.0736V34.0736L271.49 24.9195ZM259.134 21.6186L253.929 8.0634L259.134 21.6186ZM243.957 27.4456L249.161 41.0009L243.957 27.4456ZM233.665 26.0979L242.183 14.3397V14.3397L233.665 26.0979ZM216.284 28.3496C215.013 29.2701 213.295 29.2701 212.024 28.3495L229.062 4.8332C220.168 -1.61106 208.14 -1.61106 199.246 4.83317L216.284 28.3496ZM203.163 37.856L216.284 28.3495L199.246 4.83317L186.125 14.3397L203.163 37.856ZM179.147 41.0009C187.169 44.0809 196.204 42.8977 203.163 37.856L186.125 14.3397C187.119 13.6194 188.41 13.4504 189.556 13.8904L179.147 41.0009ZM163.97 35.1739L179.147 41.0009L189.556 13.8904L174.379 8.0634L163.97 35.1739ZM168.089 34.0736C167.099 35.2929 165.437 35.7369 163.97 35.1739L174.379 8.06343C164.114 4.12234 152.479 7.23049 145.547 15.7655L168.089 34.0736ZM157.938 46.5714L168.089 34.0736L145.547 15.7655L135.396 28.2632L157.938 46.5714ZM135.499 55.8163C144.062 56.7365 152.509 53.2565 157.938 46.5714L135.396 28.2632C136.172 27.3082 137.379 26.8111 138.602 26.9425L135.499 55.8163ZM119.344 54.0801L135.499 55.8163L138.602 26.9425L122.447 25.2064L119.344 54.0801ZM123.048 51.9482C122.406 53.3871 120.91 54.2485 119.344 54.0801L122.447 25.2064C111.482 24.028 101.009 30.0563 96.5214 40.1293L123.048 51.9482ZM116.545 66.5423L123.048 51.9482L96.5214 40.1293L90.0189 54.7233L116.545 66.5423ZM97.1867 81.3171C105.733 80.0063 113.026 74.44 116.545 66.5423L90.0189 54.7233C90.5213 53.5951 91.5635 52.8002 92.7843 52.6129L97.1867 81.3171ZM81.1948 83.7699L97.1867 81.3171L92.7843 52.6129L76.792 55.0656L81.1948 83.7699ZM84.2306 80.7432C83.9863 82.3055 82.7579 83.5303 81.1948 83.7699L76.792 55.0656C65.8482 56.7442 57.2509 65.3157 55.5398 76.2543L84.2306 80.7432ZM81.7785 96.4183L84.2306 80.7428L55.5398 76.2543L53.0873 91.9294L81.7785 96.4183ZM66.845 115.776C74.8038 112.299 80.4357 104.999 81.7785 96.4183L53.0873 91.9294C53.279 90.7035 54.0838 89.6606 55.2207 89.1641L66.845 115.776ZM52.1207 122.208L66.845 115.776L55.2207 89.1641L40.4963 95.5957L52.1207 122.208ZM54.2762 118.486C54.4493 120.064 53.5759 121.572 52.1207 122.208L40.4963 95.5957C30.3096 100.046 24.1977 110.6 25.409 121.65L54.2762 118.486ZM55.9975 134.188L54.2762 118.486L25.409 121.65L27.1302 137.352L55.9975 134.188ZM46.5666 156.835C53.3875 151.404 56.9475 142.855 55.9975 134.188L27.1302 137.352C26.9945 136.114 27.5031 134.893 28.4775 134.117L46.5666 156.835ZM34.0937 166.766L46.5666 156.835L28.4775 134.117L16.0046 144.048L34.0937 166.766ZM35.2126 162.603C35.7934 164.086 35.3396 165.774 34.0937 166.766L16.0046 144.048C7.28297 150.993 4.10679 162.811 8.17228 173.192L35.2126 162.603ZM40.9694 177.303L35.2126 162.603L8.17228 173.192L13.9291 187.892L40.9694 177.303ZM37.7442 201.67C42.9379 194.643 44.156 185.439 40.9694 177.303L13.9291 187.892C13.4738 186.73 13.6479 185.415 14.3898 184.411L37.7442 201.67ZM28.3293 214.41L37.7442 201.67L14.3898 184.411L4.97491 197.15L28.3293 214.41ZM28.3293 210.095C29.2769 211.377 29.2769 213.128 28.3293 214.41L4.97491 197.15C-1.6583 206.126 -1.6583 218.379 4.97491 227.355L28.3293 210.095ZM37.7442 222.835L28.3293 210.095L4.97491 227.355L14.3898 240.094L37.7442 222.835ZM40.9694 247.203C44.156 239.066 42.938 229.862 37.7442 222.835L14.3898 240.094C13.6479 239.09 13.4739 237.776 13.9291 236.613L40.9694 247.203ZM35.2126 261.903L40.9694 247.203L13.9291 236.613L8.17228 251.313L35.2126 261.903ZM34.0937 257.739C35.3396 258.731 35.7934 260.42 35.2126 261.903L8.17228 251.313C4.10676 261.694 7.28297 273.513 16.0046 280.457L34.0937 257.739ZM46.5666 267.671L34.0937 257.739L16.0046 280.457L28.4775 290.389L46.5666 267.671ZM55.9975 290.318C56.9475 281.651 53.3875 273.102 46.5666 267.671L28.4775 290.389C27.5031 289.613 26.9945 288.392 27.1302 287.153L55.9975 290.318ZM54.2762 306.02L55.9975 290.318L27.1302 287.153L25.409 302.855L54.2762 306.02ZM52.1207 302.298C53.5759 302.933 54.4493 304.441 54.2762 306.02L25.409 302.855C24.1977 313.905 30.3096 324.46 40.4963 328.91L52.1207 302.298ZM66.845 308.73L52.1207 302.298L40.4962 328.91L55.2207 335.342L66.845 308.73ZM81.7785 328.087C80.4357 319.507 74.8038 312.206 66.845 308.73L55.2207 335.342C54.0838 334.845 53.279 333.802 53.0873 332.576L81.7785 328.087ZM84.2306 343.762L81.7785 328.087L53.0873 332.576L55.5398 348.251L84.2306 343.762ZM81.1944 340.735C82.7579 340.975 83.9863 342.2 84.2306 343.762L55.5398 348.251C57.2509 359.19 65.8482 367.761 76.792 369.44L81.1944 340.735ZM97.1867 343.188L81.1944 340.735L76.792 369.44L92.7843 371.893L97.1867 343.188ZM116.545 357.963C113.026 350.066 105.733 344.499 97.1867 343.188L92.7843 371.893C91.5632 371.705 90.5213 370.91 90.0189 369.782L116.545 357.963ZM123.048 372.557L116.545 357.963L90.0189 369.782L96.5214 384.377L123.048 372.557ZM119.344 370.425C120.91 370.257 122.406 371.118 123.048 372.557L96.5214 384.377C101.009 394.45 111.482 400.476 122.447 399.3L119.344 370.425ZM135.499 368.689L119.344 370.425L122.447 399.3L138.602 397.561L135.499 368.689ZM157.938 377.934C152.509 371.249 144.062 367.769 135.499 368.689L138.602 397.561C137.379 397.696 136.172 397.198 135.396 396.244L157.938 377.934ZM168.089 390.432L157.938 377.934L135.396 396.244L145.547 408.742L168.089 390.432ZM163.97 389.332C165.437 388.769 167.099 389.212 168.089 390.432L145.547 408.742C152.479 417.276 164.114 420.383 174.379 416.441L163.97 389.332ZM179.147 383.506L163.97 389.332L174.379 416.441L189.556 410.615L179.147 383.506ZM203.163 386.649C196.204 381.607 187.169 380.424 179.147 383.506L189.556 410.615C188.41 411.054 187.119 410.887 186.125 410.165L203.163 386.649ZM216.284 396.156L203.163 386.649L186.125 410.165L199.246 419.672L216.284 396.156ZM212.024 396.156C213.295 395.234 215.013 395.234 216.284 396.156L199.246 419.672C208.14 426.115 220.168 426.115 229.062 419.672L212.024 396.156ZM225.145 386.649L212.024 396.156L229.062 419.672L242.183 410.165L225.145 386.649ZM249.161 383.506C241.139 380.424 232.104 381.607 225.145 386.649L242.183 410.165C241.19 410.887 239.899 411.054 238.753 410.615L249.161 383.506ZM264.338 389.332L249.161 383.506L238.753 410.615L253.929 416.441L264.338 389.332ZM260.219 390.432C261.21 389.212 262.872 388.769 264.338 389.332L253.929 416.441C264.194 420.383 275.829 417.276 282.761 408.742L260.219 390.432ZM270.37 377.934L260.219 390.432L282.761 408.742L292.912 396.244L270.37 377.934ZM292.809 368.689C284.246 367.769 275.799 371.249 270.37 377.934L292.912 396.244C292.136 397.198 290.929 397.696 289.706 397.561L292.809 368.689ZM308.965 370.425L292.809 368.689L289.706 397.561L305.862 399.3L308.965 370.425ZM305.261 372.557C305.902 371.118 307.398 370.257 308.965 370.425L305.861 399.3C316.826 400.476 327.299 394.45 331.787 384.377L305.261 372.557ZM311.763 357.963L305.261 372.557L331.787 384.377L338.29 369.782L311.763 357.963ZM331.121 343.188C322.575 344.499 315.282 350.066 311.763 357.963L338.29 369.782C337.787 370.91 336.745 371.705 335.524 371.893L331.121 343.188ZM347.114 340.735L331.121 343.188L335.524 371.893L351.516 369.44L347.114 340.735ZM344.078 343.762C344.322 342.2 345.55 340.975 347.114 340.735L351.516 369.44C362.46 367.761 371.057 359.19 372.769 348.251L344.078 343.762ZM346.53 328.087L344.078 343.762L372.769 348.251L375.221 332.576L346.53 328.087ZM361.463 308.73C353.504 312.206 347.872 319.507 346.53 328.087L375.221 332.576C375.029 333.802 374.225 334.845 373.088 335.342L361.463 308.73ZM376.187 302.298L361.463 308.73L373.088 335.342L387.813 328.91L376.187 302.298ZM374.032 306.02C373.859 304.441 374.732 302.933 376.187 302.298L387.813 328.91C397.999 324.46 404.112 313.905 402.9 302.855L374.032 306.02ZM372.311 290.318L374.032 306.02L402.9 302.855L401.179 287.153L372.311 290.318ZM381.74 267.671C374.921 273.102 371.361 281.651 372.311 290.318L401.179 287.153C401.313 288.392 400.805 289.613 399.832 290.389L381.74 267.671ZM394.213 257.739L381.74 267.671L399.832 290.389L412.305 280.457L394.213 257.739ZM393.095 261.903C392.514 260.42 392.968 258.731 394.213 257.739L412.305 280.457C421.024 273.513 424.2 261.694 420.135 251.313L393.095 261.903ZM387.338 247.203L393.095 261.903L420.135 251.313L414.378 236.613L387.338 247.203ZM390.565 222.835C385.37 229.862 384.151 239.066 387.338 247.203L414.378 236.613C414.835 237.776 414.661 239.09 413.92 240.094L390.565 222.835ZM399.977 210.095L390.565 222.835L413.92 240.094L423.333 227.355L399.977 210.095ZM399.977 214.41C399.03 213.128 399.03 211.377 399.977 210.095L423.333 227.355C429.965 218.379 429.965 206.126 423.333 197.15L399.977 214.41ZM390.565 201.671L399.977 214.41L423.333 197.15L413.92 184.411L390.565 201.671ZM387.338 177.302C384.151 185.439 385.37 194.643 390.565 201.67L413.92 184.411C414.661 185.415 414.835 186.73 414.378 187.892L387.338 177.302ZM393.095 162.603L387.338 177.303L414.378 187.892L420.135 173.192L393.095 162.603ZM394.213 166.766C392.968 165.774 392.514 164.086 393.095 162.603L420.135 173.192C424.2 162.811 421.024 150.993 412.305 144.048L394.213 166.766ZM381.74 156.835L394.213 166.766L412.305 144.048L399.832 134.117L381.74 156.835ZM372.311 134.188C371.361 142.855 374.921 151.404 381.74 156.835L399.832 134.117C400.805 134.893 401.313 136.114 401.179 137.352L372.311 134.188ZM374.032 118.486L372.311 134.188L401.179 137.352L402.9 121.65L374.032 118.486ZM376.187 122.208C374.732 121.572 373.859 120.064 374.032 118.486L402.9 121.65C404.112 110.6 397.999 100.046 387.813 95.5957L376.187 122.208ZM361.463 115.776L376.187 122.208L387.813 95.5957L373.088 89.1641L361.463 115.776ZM346.53 96.4183C347.872 104.999 353.504 112.299 361.463 115.776L373.088 89.1641C374.225 89.6606 375.029 90.7035 375.221 91.9294L346.53 96.4183ZM344.078 80.7428L346.53 96.4183L375.221 91.9294L372.769 76.2543L344.078 80.7428ZM347.114 83.7699C345.55 83.5303 344.322 82.3055 344.078 80.7432L372.769 76.2543C371.057 65.3157 362.46 56.7442 351.517 55.0656L347.114 83.7699ZM331.121 81.3171L347.114 83.7699L351.517 55.0656L335.524 52.6129L331.121 81.3171ZM311.763 66.5423C315.282 74.44 322.576 80.0063 331.121 81.3171L335.524 52.6129C336.745 52.8002 337.787 53.5951 338.29 54.7233L311.763 66.5423ZM305.261 51.9482L311.763 66.5423L338.29 54.7233L331.787 40.1293L305.261 51.9482ZM308.965 54.0801C307.398 54.2485 305.902 53.3871 305.261 51.9482L331.787 40.1293C327.299 30.0563 316.826 24.028 305.862 25.2064L308.965 54.0801ZM292.809 55.8163L308.965 54.0801L305.862 25.2064L289.706 26.9425L292.809 55.8163ZM270.37 46.5714C275.799 53.2568 284.246 56.7365 292.809 55.8163L289.706 26.9426C290.929 26.8111 292.136 27.3082 292.912 28.2633L270.37 46.5714ZM260.219 34.0736L270.37 46.5714L292.912 28.2632L282.761 15.7654L260.219 34.0736ZM264.338 35.1739C262.872 35.7369 261.21 35.2929 260.219 34.0736L282.761 15.7655C275.829 7.23049 264.194 4.12234 253.929 8.0634L264.338 35.1739ZM249.161 41.0009L264.338 35.1739L253.929 8.0634L238.753 13.8904L249.161 41.0009ZM225.145 37.856C232.104 42.8977 241.139 44.0809 249.161 41.0009L238.753 13.8904C239.899 13.4504 241.19 13.6194 242.183 14.3397L225.145 37.856ZM212.024 28.3495L225.145 37.856L242.183 14.3397L229.062 4.8332L212.024 28.3495ZM322.565 211.424C322.565 271.93 273.26 321.099 212.293 321.099V350.139C289.167 350.139 351.605 288.099 351.605 211.424H322.565ZM212.293 101.749C273.26 101.749 322.565 150.918 322.565 211.424H351.605C351.605 134.748 289.167 72.7093 212.293 72.7093V101.749ZM102.022 211.424C102.022 150.918 151.326 101.749 212.293 101.749V72.7093C135.419 72.7093 72.9815 134.748 72.9815 211.424H102.022ZM212.293 321.099C151.326 321.099 102.022 271.93 102.022 211.424H72.9815C72.9815 288.099 135.419 350.139 212.293 350.139V321.099Z" fill="white"/>
</svg>
